<?xml version="1.0" encoding="utf-8"?>
<!-- Generator: Adobe Illustrator 27.5.0, SVG Export Plug-In . SVG Version: 6.00 Build 0)  -->
<svg version="1.1" xmlns="http://www.w3.org/2000/svg" xmlns:xlink="http://www.w3.org/1999/xlink" x="0px" y="0px"
	 viewBox="0 0 2200 2200" style="enable-background:new 0 0 2200 2200;" xml:space="preserve">
<g id="background">
	<rect style="fill:#FFFFFF;" width="2200" height="2200"/>
</g>
<g id="Objects">
	<g>
		<g>
			<path d="M1722.641,1697.468c0,199.37-172.662,254.95-239.379,254.95c-72.353,0-130.398-20.985-190.949-45.213
				c-123.744-49.513-260.883-49.513-384.626,0c-60.551,24.228-118.596,45.213-190.948,45.213
				c-66.717,0-239.379-55.58-239.379-254.95c0-237.47,235.954-269.37,326.579-409.37c51.251-79.18,116.269-292.59,296.062-292.59
				s244.811,213.41,296.062,292.59C1486.687,1428.098,1722.641,1459.998,1722.641,1697.468z"/>
		</g>
		<path d="M912.158,953.746C814.782,967.15,695.1,810.277,668.322,615.514c-26.788-194.753,49.495-353.641,146.871-367.035
			c97.376-13.394,172.621,124.678,199.399,319.431C1041.38,762.673,1009.545,940.362,912.158,953.746z"/>
		<path d="M616.648,1247.396c-80.837,24.403-203.377-92.699-252.142-254.383c-48.786-161.674-5.304-306.695,75.533-331.088
			c80.827-24.393,163.144,82.708,211.919,244.381C700.743,1067.98,697.495,1223.013,616.648,1247.396z"/>
		<path d="M1287.842,953.746c97.376,13.404,217.059-143.469,243.837-338.232c26.788-194.753-49.495-353.641-146.871-367.035
			c-97.376-13.394-172.621,124.678-199.399,319.431C1158.62,762.673,1190.455,940.362,1287.842,953.746z"/>
		<path d="M1583.352,1247.396c80.837,24.403,203.377-92.699,252.142-254.383c48.786-161.674,5.304-306.695-75.533-331.088
			c-80.827-24.393-163.144,82.708-211.919,244.381C1499.257,1067.98,1502.505,1223.013,1583.352,1247.396z"/>
		<g>
			<path style="fill:#FFFFFF;" d="M1120.523,1687.621c-65.354,29.45-159.465,18.833-227.331-34.99
				c-34.535,32.187-57.677,62.242-71.219,82.188c-8.151,12.005-25.373,13.25-35.215,2.589h0c-8.012-8.679-7.984-22.074,0.079-30.705
				c101.802-108.978,239.716-204.341,374.678-264.265c-54.55,18.987-125.224,47.997-177.781,71.907
				c-49.209,22.391-91.566,47.152-137.433,86.187c-27.325-77.096,12.242-158.668,70.118-189.88
				c59.407-32.038,128.749-38.525,195.843-45.96c57.145-6.337,116.103-14.504,167.035-39.93c10.697-5.34,23.361,2.235,23.73,14.186
				C1307.484,1483.057,1269.901,1620.279,1120.523,1687.621z"/>
		</g>
	</g>
</g>
</svg>
